<svg width="26" height="27" viewBox="0 0 26 27" fill="none" xmlns="http://www.w3.org/2000/svg">
<g clip-path="url(#clip0_12_72)">
<path d="M8 15C10.2091 15 12 13.433 12 11.5C12 9.567 10.2091 7.5 8 7.5C5.79086 7.5 4 9.567 4 11.5C4 13.433 5.79086 15 8 15Z" stroke="#043097" stroke-width="3"/>
<path d="M15 24C15 23.0804 14.8188 22.1697 14.4669 21.3202C14.1149 20.4706 13.5991 19.6987 12.9488 19.0486C12.2985 18.3986 11.5265 17.883 10.677 17.5315C9.82748 17.18 8.91704 16.9994 7.9977 17C6.14179 17 4.3619 17.7375 3.04958 19.0503C1.73726 20.363 1 22.1435 1 24H15Z" stroke="#043097" stroke-width="3"/>
<path d="M18.5 16C20.433 16 22 14.6569 22 13C22 11.3431 20.433 9.5 18.5 9.5C16.567 9.5 15 11.3431 15 13C15 14.6569 16.567 16 18.5 16Z" stroke="#043097" stroke-width="3"/>
<path d="M17.7847 24H24C24 23.3424 23.859 22.6912 23.5851 22.0838C23.3112 21.4763 22.9097 20.9246 22.4037 20.4601C21.8977 19.9957 21.2971 19.6276 20.6363 19.3771C19.9755 19.1265 19.2674 18.9984 18.5527 19C17.6626 18.9989 16.7859 19.1995 16 19.5842" stroke="#043097" stroke-width="3"/>
</g>
<defs>
<clipPath id="clip0_12_72">
<rect width="26" height="27" fill="white"/>
</clipPath>
</defs>
</svg>
