<svg width="27" height="28" viewBox="0 0 27 28" fill="none" xmlns="http://www.w3.org/2000/svg">
<path d="M13.5 28C20.9558 28 27 21.732 27 14C27 6.26801 20.9558 0 13.5 0C6.04416 0 0 6.26801 0 14C0 21.732 6.04416 28 13.5 28Z" fill="#181717"/>
<path d="M1.89911 21.1645C3.54248 24.0197 6.13839 26.2168 9.23212 27.2849C9.90759 27.413 10.1537 26.9807 10.1537 26.6094C10.1537 26.4557 10.1512 26.1841 10.1479 25.8206C10.144 25.3996 10.139 24.8555 10.1355 24.2287C6.38038 25.0744 5.58813 22.3517 5.58813 22.3517C4.97402 20.735 4.08889 20.3045 4.08889 20.3045C2.86316 19.4356 4.1817 19.4527 4.1817 19.4527C5.5367 19.5525 6.24943 20.8958 6.24943 20.8958C7.45363 23.035 9.40951 22.417 10.1786 22.0594C10.3013 21.1545 10.6493 20.5374 11.0355 20.1876C8.03791 19.8344 4.88613 18.6328 4.88613 13.2681C4.88613 11.74 5.41243 10.4904 6.27596 9.51153C6.1367 9.1574 5.67345 7.73416 6.40772 5.80643C6.40772 5.80643 7.54145 5.42997 10.1206 7.24171C11.1971 6.93147 12.3524 6.77586 13.5002 6.77075C14.6464 6.77586 15.8017 6.93147 16.8799 7.24171C19.4573 5.42997 20.5886 5.80643 20.5886 5.80643C21.3253 7.73416 20.862 9.1574 20.7228 9.51153C21.5881 10.4904 22.111 11.74 22.111 13.2681C22.111 18.6466 18.9543 19.83 15.9467 20.1764C16.4315 20.6087 16.8633 21.463 16.8633 22.7694C16.8633 24.0206 16.8559 25.1105 16.851 25.8324C16.8485 26.19 16.8467 26.4573 16.8467 26.6094C16.8467 26.9841 17.0895 27.4198 17.7749 27.2832C20.2395 26.43 22.3878 24.8608 23.9897 22.8132C21.5146 25.9776 17.735 28 13.4998 28C8.56866 28 4.25507 25.2582 1.89911 21.1645Z" fill="white"/>
</svg>
