<svg width="174" height="26" viewBox="0 0 174 26" fill="none" xmlns="http://www.w3.org/2000/svg">
<g clip-path="url(#clip0_4_133)">
<path d="M21.0499 6.43879C21.0293 6.38127 21.019 6.3142 21.019 6.23754C21.019 6.02672 21.1015 5.84469 21.2666 5.69136C21.4316 5.53803 21.6276 5.46136 21.8546 5.46136H24.1757C24.4027 5.46136 24.609 5.53803 24.7947 5.69136C25.001 5.82551 25.1351 5.97884 25.197 6.15131L29.3132 15.0341L33.4294 6.15131C33.4913 5.97884 33.6151 5.82551 33.8008 5.69136C34.0071 5.53803 34.2237 5.46136 34.4507 5.46136H36.7718C36.9988 5.46136 37.1948 5.53803 37.3599 5.69136C37.5249 5.84469 37.6074 6.02672 37.6074 6.23754C37.6074 6.3142 37.5971 6.38127 37.5765 6.43879L28.8799 25.1818C28.818 25.3542 28.6839 25.5076 28.4776 25.6417C28.2919 25.7951 28.0856 25.8717 27.8586 25.8717H25.5375C25.3105 25.8717 25.1145 25.7951 24.9495 25.6417C24.7844 25.4884 24.7018 25.3064 24.7018 25.0955C24.7018 25.0189 24.7122 24.9518 24.7328 24.8943L27.1777 19.6049L21.0499 6.43879Z" fill="black"/>
<path d="M56.1112 11.93C56.1316 12.1216 56.1422 12.457 56.1422 12.9361C56.1422 13.4152 56.1316 13.7506 56.1112 13.9423C56.0492 15.1496 55.7295 16.2708 55.1519 17.3056C54.574 18.3214 53.7694 19.1455 52.7379 19.7779C51.7268 20.3912 50.5508 20.6978 49.2095 20.6978C48.0543 20.6978 47.095 20.5253 46.3313 20.1804C45.5679 19.8354 44.9695 19.4329 44.5364 18.973V19.6341C44.5364 19.845 44.454 20.027 44.2887 20.1804C44.1237 20.3337 43.9278 20.4103 43.7008 20.4103H41.3488C41.1219 20.4103 40.9256 20.3337 40.7606 20.1804C40.5957 20.027 40.5132 19.845 40.5132 19.6341V0.776167C40.5132 0.565356 40.5957 0.383293 40.7606 0.229976C40.9256 0.0766589 41.1219 0 41.3488 0H43.7008C43.9278 0 44.1237 0.0766589 44.2887 0.229976C44.454 0.383293 44.5364 0.565356 44.5364 0.776167V6.89928C44.9903 6.43932 45.599 6.03685 46.3623 5.69189C47.1256 5.34694 48.0747 5.17446 49.2095 5.17446C50.5508 5.17446 51.7268 5.49067 52.7379 6.12311C53.7694 6.73635 54.574 7.56045 55.1519 8.59532C55.7295 9.61104 56.0492 10.7226 56.1112 11.93ZM48.2812 8.62409C47.2701 8.62409 46.4141 8.92113 45.7124 9.51523C45.0316 10.0902 44.6397 10.8663 44.5364 11.8437C44.5156 12.0354 44.5054 12.3995 44.5054 12.9361C44.5054 13.4727 44.5156 13.8368 44.5364 14.0285C44.6397 15.0442 45.0316 15.8396 45.7124 16.4145C46.3933 16.9703 47.2497 17.2482 48.2812 17.2482C49.3335 17.2482 50.2001 16.9607 50.881 16.3858C51.5619 15.8108 51.964 14.9292 52.088 13.741C52.1293 13.3577 52.1497 13.0894 52.1497 12.9361C52.1497 11.4796 51.799 10.3968 51.0974 9.68771C50.3961 8.97861 49.4572 8.62409 48.2812 8.62409Z" fill="black"/>
<path d="M67.195 8.911C65.957 8.911 65.0597 9.16974 64.5026 9.68717C63.9662 10.1855 63.698 11.0096 63.698 12.1594V19.6336C63.698 19.8444 63.6152 20.0265 63.4502 20.1798C63.2853 20.3331 63.0894 20.4098 62.8624 20.4098H60.51C60.2831 20.4098 60.0871 20.3331 59.9222 20.1798C59.7569 20.0265 59.6744 19.8444 59.6744 19.6336V6.23754C59.6744 6.02672 59.7569 5.84469 59.9222 5.69136C60.0871 5.53803 60.2831 5.46136 60.51 5.46136H62.8624C63.0894 5.46136 63.2853 5.53803 63.4502 5.69136C63.6152 5.84469 63.698 6.02672 63.698 6.23754V6.89874C64.2548 6.40046 64.843 6.03632 65.4618 5.80636C66.081 5.57636 66.8648 5.46136 67.8139 5.46136H69.2066C69.4336 5.46136 69.6295 5.53803 69.7948 5.69136C69.9597 5.84469 70.0422 6.02672 70.0422 6.23754V8.13483C70.0422 8.34564 69.9597 8.52771 69.7948 8.68104C69.6295 8.83434 69.4336 8.911 69.2066 8.911H67.195Z" fill="black"/>
<path d="M87.0586 11.5946C87.0999 12.0545 87.1203 12.5432 87.1203 13.0607C87.1203 13.559 87.0999 14.0381 87.0586 14.498C86.9554 15.6671 86.5737 16.7307 85.9133 17.689C85.2532 18.6472 84.3454 19.4042 83.1898 19.9599C82.055 20.5157 80.7553 20.7936 79.2903 20.7936C77.8253 20.7936 76.5154 20.5157 75.3598 19.9599C74.225 19.4042 73.3278 18.6472 72.6673 17.689C72.0072 16.7307 71.6256 15.6671 71.5223 14.498C71.5015 14.2681 71.4913 13.789 71.4913 13.0607C71.4913 12.3133 71.5015 11.8245 71.5223 11.5946C71.6256 10.4064 72.0072 9.33315 72.6673 8.37494C73.3278 7.4167 74.225 6.65968 75.3598 6.10391C76.5154 5.54815 77.8253 5.27026 79.2903 5.27026C80.7553 5.27026 82.055 5.54815 83.1898 6.10391C84.3454 6.65968 85.2532 7.4167 85.9133 8.37494C86.5737 9.33315 86.9554 10.4064 87.0586 11.5946ZM79.2903 8.7199C78.3 8.7199 77.4542 8.94986 76.7525 9.40981C76.0717 9.86977 75.6692 10.6459 75.5455 11.7383C75.5251 11.93 75.5145 12.3612 75.5145 13.0319C75.5145 13.7027 75.5251 14.1339 75.5455 14.3255C75.6692 15.4179 76.0717 16.1941 76.7525 16.654C77.4542 17.114 78.3 17.344 79.2903 17.344C80.2806 17.344 81.1161 17.114 81.797 16.654C82.4987 16.1941 82.9114 15.4179 83.0351 14.3255C83.0763 13.9422 83.0971 13.511 83.0971 13.0319C83.0971 12.5528 83.0763 12.1216 83.0351 11.7383C82.9114 10.6459 82.4987 9.86977 81.797 9.40981C81.1161 8.94986 80.2806 8.7199 79.2903 8.7199Z" fill="black"/>
<path d="M108.828 6.15131C108.91 5.9405 109.013 5.77758 109.137 5.66262C109.261 5.52847 109.446 5.46136 109.694 5.46136H112.046C112.273 5.46136 112.469 5.53803 112.634 5.69136C112.799 5.84469 112.882 6.02672 112.882 6.23754C112.882 6.3142 112.871 6.38127 112.851 6.43879L108.177 19.6911C108.012 20.1702 107.713 20.4098 107.28 20.4098H104.928C104.68 20.4098 104.495 20.3523 104.371 20.2373C104.247 20.1032 104.133 19.9211 104.03 19.6911L101.028 12.0157L98.0263 19.6911C97.923 19.9211 97.8095 20.1032 97.6859 20.2373C97.5622 20.3523 97.3764 20.4098 97.1287 20.4098H94.7767C94.3435 20.4098 94.0443 20.1702 93.879 19.6911L89.206 6.43879C89.1852 6.38127 89.175 6.3142 89.175 6.23754C89.175 6.02672 89.2574 5.84469 89.4227 5.69136C89.5877 5.53803 89.7836 5.46136 90.0106 5.46136H92.3626C92.6104 5.46136 92.7961 5.52847 92.9198 5.66262C93.0435 5.77758 93.1467 5.9405 93.2292 6.15131L96.0147 14.3729L98.9856 6.15131C99.0476 5.97884 99.1509 5.82551 99.2954 5.69136C99.4603 5.53803 99.646 5.46136 99.8522 5.46136H102.204C102.411 5.46136 102.586 5.53803 102.73 5.69136C102.896 5.82551 103.009 5.97884 103.071 6.15131L106.042 14.3729L108.828 6.15131Z" fill="black"/>
<path d="M120.034 19.6341C120.034 19.845 119.951 20.027 119.787 20.1804C119.621 20.3337 119.425 20.4103 119.198 20.4103H116.846C116.619 20.4103 116.423 20.3337 116.258 20.1804C116.093 20.027 116.011 19.845 116.011 19.6341V0.776167C116.011 0.565356 116.093 0.383293 116.258 0.229976C116.423 0.0766589 116.619 0 116.846 0H119.198C119.425 0 119.621 0.0766589 119.787 0.229976C119.951 0.383293 120.034 0.565356 120.034 0.776167V19.6341Z" fill="black"/>
<path d="M130.914 5.17488C133.039 5.17488 134.721 5.69232 135.958 6.72722C137.217 7.76213 137.846 9.24736 137.846 11.183V19.6346C137.846 19.8454 137.764 20.0275 137.599 20.1808C137.434 20.3341 137.238 20.4108 137.011 20.4108H134.659C134.432 20.4108 134.236 20.3341 134.07 20.1808C133.905 20.0275 133.823 19.8454 133.823 19.6346V18.686C133.348 19.2992 132.688 19.7879 131.842 20.152C131.017 20.5162 130.016 20.6982 128.84 20.6982C127.107 20.6982 125.735 20.2862 124.724 19.4621C123.713 18.6188 123.208 17.5361 123.208 16.2137C123.208 14.9297 123.692 13.9139 124.662 13.1665C125.653 12.3999 127.025 11.8729 128.778 11.5855L133.823 10.7806C133.823 10.0523 133.555 9.51569 133.018 9.17069C132.503 8.80659 131.801 8.62452 130.914 8.62452C130.439 8.62452 130.047 8.69159 129.738 8.82574C129.449 8.94073 129.16 9.12281 128.871 9.37195C128.562 9.64024 128.221 9.77439 127.85 9.77439H124.972C124.765 9.77439 124.59 9.71691 124.446 9.60191C124.322 9.46776 124.27 9.31443 124.291 9.14195C124.415 8.54785 124.735 7.94416 125.25 7.33091C125.786 6.71763 126.529 6.20979 127.478 5.80731C128.448 5.38569 129.593 5.17488 130.914 5.17488ZM133.823 13.7415L129.614 14.4314C128.789 14.5656 128.18 14.7668 127.788 15.0351C127.416 15.2842 127.231 15.6292 127.231 16.07C127.231 16.4533 127.437 16.7503 127.85 16.9611C128.283 17.1528 128.82 17.2486 129.459 17.2486C130.367 17.2486 131.151 17.0953 131.811 16.7887C132.472 16.482 132.967 16.0892 133.297 15.61C133.648 15.1117 133.823 14.5847 133.823 14.0289V13.7415Z" fill="black"/>
<path d="M157.571 11.93C157.591 12.1216 157.602 12.457 157.602 12.9361C157.602 13.4152 157.591 13.7506 157.571 13.9423C157.509 15.1496 157.189 16.2708 156.611 17.3056C156.033 18.3214 155.229 19.1455 154.197 19.7779C153.186 20.3912 152.01 20.6978 150.669 20.6978C149.514 20.6978 148.554 20.5253 147.791 20.1804C147.027 19.8354 146.429 19.4329 145.996 18.973V19.6341C145.996 19.845 145.913 20.027 145.748 20.1804C145.583 20.3337 145.387 20.4103 145.16 20.4103H142.808C142.581 20.4103 142.385 20.3337 142.22 20.1804C142.055 20.027 141.973 19.845 141.973 19.6341V0.776167C141.973 0.565356 142.055 0.383293 142.22 0.229976C142.385 0.0766589 142.581 0 142.808 0H145.16C145.387 0 145.583 0.0766589 145.748 0.229976C145.913 0.383293 145.996 0.565356 145.996 0.776167V6.89928C146.45 6.43932 147.058 6.03685 147.822 5.69189C148.585 5.34694 149.534 5.17446 150.669 5.17446C152.01 5.17446 153.186 5.49067 154.197 6.12311C155.229 6.73635 156.033 7.56045 156.611 8.59532C157.189 9.61104 157.509 10.7226 157.571 11.93ZM149.741 8.62409C148.73 8.62409 147.874 8.92113 147.172 9.51523C146.491 10.0902 146.099 10.8663 145.996 11.8437C145.975 12.0354 145.965 12.3995 145.965 12.9361C145.965 13.4727 145.975 13.8368 145.996 14.0285C146.099 15.0442 146.491 15.8396 147.172 16.4145C147.853 16.9703 148.709 17.2482 149.741 17.2482C150.793 17.2482 151.66 16.9607 152.34 16.3858C153.021 15.8108 153.423 14.9292 153.547 13.741C153.589 13.3577 153.609 13.0894 153.609 12.9361C153.609 11.4796 153.258 10.3968 152.557 9.68771C151.855 8.97861 150.917 8.62409 149.741 8.62409Z" fill="black"/>
<path d="M165.188 14.4314C163.455 14.0673 162.238 13.5115 161.536 12.7641C160.855 12.0166 160.515 11.0297 160.515 9.80313C160.515 9.0174 160.773 8.26997 161.289 7.56087C161.804 6.85178 162.547 6.27686 163.517 5.83605C164.487 5.39528 165.611 5.17488 166.891 5.17488C168.17 5.17488 169.294 5.34736 170.264 5.69232C171.254 6.03731 172.018 6.49726 172.554 7.07218C173.111 7.64713 173.41 8.25082 173.452 8.88325C173.472 9.09406 173.39 9.2761 173.204 9.42943C173.039 9.58276 172.843 9.65942 172.616 9.65942H170.233C169.986 9.65942 169.789 9.63065 169.645 9.57317C169.501 9.4965 169.346 9.3911 169.181 9.25695C168.933 9.06529 168.644 8.91199 168.314 8.797C168.005 8.682 167.53 8.62452 166.891 8.62452C166.21 8.62452 165.642 8.72033 165.188 8.91199C164.755 9.10362 164.539 9.40069 164.539 9.80313C164.539 10.0906 164.641 10.3206 164.848 10.4931C165.075 10.6464 165.457 10.7901 165.993 10.9243C166.529 11.0393 167.499 11.2405 168.902 11.5279C170.677 11.8729 171.956 12.4287 172.74 13.1953C173.524 13.9619 173.916 14.9393 173.916 16.1275C173.916 16.9132 173.637 17.6606 173.08 18.3697C172.523 19.0597 171.718 19.625 170.666 20.0658C169.634 20.4874 168.427 20.6982 167.045 20.6982C165.663 20.6982 164.456 20.5066 163.424 20.1233C162.413 19.7208 161.629 19.213 161.072 18.5997C160.536 17.9865 160.247 17.354 160.206 16.7024C160.185 16.4916 160.257 16.3095 160.422 16.1562C160.608 16.0029 160.814 15.9262 161.041 15.9262H163.424C163.651 15.9262 163.837 15.9646 163.981 16.0412C164.126 16.1179 164.281 16.2329 164.446 16.3862C164.735 16.6545 165.054 16.8653 165.405 17.0186C165.756 17.1719 166.302 17.2486 167.045 17.2486C167.788 17.2486 168.448 17.1624 169.026 16.9899C169.604 16.7982 169.892 16.5107 169.892 16.1275C169.892 15.8783 169.789 15.6867 169.583 15.5525C169.377 15.3992 169.057 15.2651 168.624 15.1501C168.19 15.0351 167.447 14.8722 166.395 14.6614L165.188 14.4314Z" fill="black"/>
<path d="M16.867 1.24568C17.0939 1.24568 17.29 1.32234 17.455 1.47566C17.6201 1.62897 17.7026 1.81104 17.7026 2.02185V20.5924C17.7026 20.8032 17.6201 20.9852 17.455 21.1386C17.29 21.2919 17.0939 21.3685 16.867 21.3685H14.3601C14.1332 21.3685 13.9372 21.2919 13.7721 21.1386C13.6071 20.9852 13.5245 20.8032 13.5245 20.5924V13.0032H4.17808V20.5924C4.17808 20.8032 4.09554 20.9852 3.93047 21.1386C3.76542 21.2919 3.56941 21.3685 3.34245 21.3685H0.835612C0.608656 21.3685 0.412649 21.3014 0.247589 21.1673C0.0825297 21.014 0 20.8223 0 20.5924V2.02185C0 1.81104 0.0825297 1.62897 0.247589 1.47566C0.412649 1.32234 0.608656 1.24568 0.835612 1.24568H3.34245C3.56941 1.24568 3.76542 1.32234 3.93047 1.47566C4.09554 1.62897 4.17808 1.81104 4.17808 2.02185V9.40982H13.5245V2.02185C13.5245 1.81104 13.6071 1.62897 13.7721 1.47566C13.9372 1.32234 14.1332 1.24568 14.3601 1.24568H16.867Z" fill="#0038FF"/>
</g>
<defs>
<clipPath id="clip0_4_133">
<rect width="174" height="26" fill="white"/>
</clipPath>
</defs>
</svg>
