<svg width="34" height="34" viewBox="0 0 34 34" fill="none" xmlns="http://www.w3.org/2000/svg">
<path d="M34 17C34 26.3888 26.3888 34 17 34C7.61116 34 0 26.3888 0 17C0 7.61116 7.61116 3.51607e-06 17 3.51607e-06C26.3888 3.51607e-06 34 7.61116 34 17Z" fill="white"/>
<path d="M24.867 6C25.0939 6 25.2899 6.07666 25.455 6.22998C25.6201 6.38329 25.7026 6.56536 25.7026 6.77617V25.3467C25.7026 25.5575 25.6201 25.7395 25.455 25.8929C25.2899 26.0462 25.0939 26.1228 24.867 26.1228H22.3601C22.1332 26.1228 21.9372 26.0462 21.7721 25.8929C21.607 25.7395 21.5245 25.5575 21.5245 25.3467V17.7575H12.1781V25.3467C12.1781 25.5575 12.0955 25.7395 11.9305 25.8929C11.7654 26.0462 11.5694 26.1228 11.3424 26.1228H8.83559C8.60864 26.1228 8.41263 26.0558 8.24757 25.9216C8.08251 25.7683 7.99998 25.5767 7.99998 25.3467V6.77617C7.99998 6.56536 8.08251 6.38329 8.24757 6.22998C8.41263 6.07666 8.60864 6 8.83559 6H11.3424C11.5694 6 11.7654 6.07666 11.9305 6.22998C12.0955 6.38329 12.1781 6.56536 12.1781 6.77617V14.1641H21.5245V6.77617C21.5245 6.56536 21.607 6.38329 21.7721 6.22998C21.9372 6.07666 22.1332 6 22.3601 6H24.867Z" fill="#0038FF"/>
</svg>
