<svg width="27" height="28" viewBox="0 0 27 28" fill="none" xmlns="http://www.w3.org/2000/svg">
<path d="M27 14C27 6.26801 20.9558 0 13.5 0C6.04416 0 0 6.26801 0 14C0 21.732 6.04416 28 13.5 28C20.9558 28 27 21.732 27 14Z" fill="#0A66C2"/>
<path d="M10.2394 7.69215C10.2394 8.6267 9.4582 9.3843 8.49468 9.3843C7.53111 9.3843 6.75 8.6267 6.75 7.69215C6.75 6.7576 7.53111 6 8.49468 6C9.4582 6 10.2394 6.7576 10.2394 7.69215Z" fill="white"/>
<path d="M6.98859 10.6281H9.97091V20H6.98859V10.6281Z" fill="white"/>
<path d="M14.7725 10.6281H11.7901V20H14.7725C14.7725 20 14.7725 17.0496 14.7725 15.2049C14.7725 14.0976 15.1371 12.9855 16.5917 12.9855C18.2356 12.9855 18.2258 14.4345 18.2181 15.5571C18.208 17.0244 18.2319 18.5219 18.2319 20H21.2143V15.0537C21.189 11.8954 20.3954 10.4401 17.7846 10.4401C16.2341 10.4401 15.273 11.1701 14.7725 11.8305V10.6281Z" fill="white"/>
</svg>
