<svg width="35" height="38" viewBox="0 0 35 38" fill="none" xmlns="http://www.w3.org/2000/svg">
<ellipse cx="17.5" cy="19" rx="17.5" ry="19" fill="white"/>
<path d="M19.2817 19.4863C18.925 19.5935 18.5444 19.6529 18.1482 19.6529C17.752 19.6529 17.3713 19.5935 17.0145 19.4863C14.4229 19.869 13.0665 21.5818 13.0665 23.6603H18.1482H23.2297C23.2297 21.5818 21.8736 19.869 19.2817 19.4863Z" fill="#48DB68"/>
<path d="M18.1481 18.9125C19.6844 18.9125 20.9294 17.7924 20.9294 16.4111V15.7017C20.9294 14.3204 19.6844 13.2007 18.1481 13.2007C16.6118 13.2007 15.3668 14.3204 15.3668 15.7017V16.4111C15.3668 17.7924 16.6118 18.9125 18.1481 18.9125Z" fill="#48DB68"/>
<path d="M25.0037 6.78572H11.2917C8.63976 6.78572 6.48151 8.7268 6.48151 11.1118V28.2462C6.48151 30.6313 8.63976 32.5714 11.2917 32.5714H22.8124H23.5503L24.0722 32.103L29.2939 27.4077L29.8148 26.9389V26.2754V11.1118C29.8148 8.7268 27.6566 6.78572 25.0037 6.78572ZM28.0336 26.2753H25.3369C23.9433 26.2753 22.8124 27.2918 22.8124 28.5453V30.9697H11.2917C9.6189 30.9697 8.26282 29.7499 8.26282 28.2462V11.1118C8.26282 9.60729 9.6189 8.3874 11.2917 8.3874H25.0037C26.677 8.3874 28.0335 9.60729 28.0335 11.1118V26.2753H28.0336Z" fill="#48DB68"/>
</svg>
